<?xml version="1.0" ?><!DOCTYPE svg  PUBLIC '-//W3C//DTD SVG 1.1 Tiny//EN'  'http://www.w3.org/Graphics/SVG/1.1/DTD/svg11-tiny.dtd'><svg baseProfile="tiny" height="512px" id="Layer_1" version="1.1" viewBox="0 0 512 512" width="512px" xml:space="preserve" xmlns="http://www.w3.org/2000/svg" xmlns:xlink="http://www.w3.org/1999/xlink"><path d="M253.867,79.22c0,0-69,128,0,189C253.867,268.22,370.867,180.22,253.867,79.22z" fill="#FF3333"/><path d="M256.322,100c0,0-53.976,100.13,0,147.848C256.322,247.848,347.847,179.009,256.322,100z" fill="#FF6633"/><polygon fill="#FF3333" points="207.867,116.013 211.455,123.282 219.477,124.447 213.672,130.105 215.042,138.095 207.867,134.323   200.692,138.095 202.063,130.105 196.258,124.447 204.279,123.282 "/><polygon fill="#FF3333" points="313.867,141.22 315.337,144.197 318.622,144.675 316.245,146.992 316.806,150.265 313.867,148.72   310.929,150.265 311.489,146.992 309.112,144.675 312.397,144.197 "/><polygon fill="#FF6633" points="287.867,75 290.577,80.49 296.636,81.371 292.251,85.645 293.286,91.679 287.867,88.829   282.448,91.679 283.483,85.645 279.099,81.371 285.157,80.49 "/><polygon fill="#FF6633" points="228.867,86.978 230.114,89.504 232.902,89.908 230.885,91.875 231.361,94.652 228.867,93.341   226.373,94.652 226.85,91.875 224.832,89.908 227.62,89.504 "/><g><path d="M256,429.22c-84.916,0-154-69.084-154-154c0-2.209,1.791-4,4-4h300c2.209,0,4,1.791,4,4   C410,360.136,340.916,429.22,256,429.22z" fill="#FF3333"/><path d="M406,275.22c0,82.843-67.157,150-150,150s-150-67.157-150-150H406 M406,267.22H106c-4.418,0-8,3.582-8,8   c0,42.203,16.435,81.881,46.277,111.723c29.842,29.843,69.52,46.277,111.723,46.277s81.881-16.435,111.723-46.277   C397.565,357.101,414,317.423,414,275.22C414,270.802,410.418,267.22,406,267.22L406,267.22z" fill="#660033"/></g><path d="M310.519,414.999c14.14-5.52,27.232-13.124,38.909-22.432l-171.552,10.722  c12.698,7.763,26.641,13.686,41.458,17.409L310.519,414.999z" fill="#CC3366"/><path d="M385.888,350.288l-249.392,15.587c5.156,6.787,10.878,13.12,17.095,18.932l217.676-13.604  C376.707,364.676,381.604,357.683,385.888,350.288z" fill="#CC3366"/><path d="M395.806,329.668c2.566-6.585,4.685-13.395,6.31-20.394l-286.858,17.929  c2.484,6.722,5.433,13.22,8.813,19.449L395.806,329.668z" fill="#CC3366"/><path d="M109.507,308.563l295.851-18.491c0.418-4.563,0.643-9.181,0.643-13.852h-99.016l-200.459,12.528  C107.083,295.49,108.088,302.104,109.507,308.563z" fill="#CC3366"/></svg>